<svg width="16" height="16" viewBox="0 0 16 16" fill="none" xmlns="http://www.w3.org/2000/svg">
<path d="M2.17599 9.68218C2.1198 9.73831 2.07531 9.80499 2.0451 9.87839C2.01489 9.9518 1.99957 10.0305 2.00001 10.1098L2.02075 13.4042C2.0219 13.5633 2.08631 13.7155 2.1998 13.8272C2.3133 13.9389 2.46659 14.0011 2.62598 14L5.88485 13.9784C6.04269 13.9776 6.19385 13.9148 6.3057 13.8036L13.3747 6.74573C14.2083 5.9134 14.2086 4.54807 13.3747 3.71575L12.2814 2.62425C11.4477 1.79191 10.0787 1.79192 9.24501 2.62425L2.17599 9.68218ZM3.20363 10.3535L8.06706 5.4977L10.4959 7.9227L5.63078 12.7801L3.21939 12.7958L3.20363 10.3535ZM8.91705 4.64904L10.0949 3.473C10.4724 3.09614 11.0539 3.09615 11.4314 3.473L12.5246 4.5645C12.9021 4.94135 12.9018 5.5203 12.5246 5.89717L11.3459 7.07403L8.91705 4.64904Z" fill="#5C5C5C"/>
</svg>
