<svg xmlns="http://www.w3.org/2000/svg" width="7" height="8" viewBox="0 0 7 8" fill="none">
  <path d="M4.18747 6.5H4.56247C4.6122 6.5 4.65989 6.48025 4.69505 6.44508C4.73022 6.40992 4.74997 6.36223 4.74997 6.3125V2.9375C4.74997 2.88777 4.73022 2.84008 4.69505 2.80492C4.65989 2.76975 4.6122 2.75 4.56247 2.75H4.18747C4.13774 2.75 4.09005 2.76975 4.05489 2.80492C4.01973 2.84008 3.99997 2.88777 3.99997 2.9375V6.3125C3.99997 6.36223 4.01973 6.40992 4.05489 6.44508C4.09005 6.48025 4.13774 6.5 4.18747 6.5ZM6.74997 1.25H5.46232L4.93107 0.364063C4.86439 0.252971 4.77008 0.161046 4.65732 0.0972433C4.54456 0.033441 4.41719 -6.16155e-05 4.28763 8.50697e-08H2.71232C2.58281 -7.63702e-06 2.4555 0.0335206 2.3428 0.0973203C2.2301 0.16112 2.13583 0.253017 2.06919 0.364063L1.53763 1.25H0.249971C0.183667 1.25 0.120079 1.27634 0.0731947 1.32322C0.0263106 1.37011 -2.86102e-05 1.4337 -2.86102e-05 1.5L-2.86102e-05 1.75C-2.86102e-05 1.8163 0.0263106 1.87989 0.0731947 1.92678C0.120079 1.97366 0.183667 2 0.249971 2H0.499971V7.25C0.499971 7.44891 0.578989 7.63968 0.719641 7.78033C0.860294 7.92098 1.05106 8 1.24997 8H5.74997C5.94888 8 6.13965 7.92098 6.2803 7.78033C6.42095 7.63968 6.49997 7.44891 6.49997 7.25V2H6.74997C6.81628 2 6.87986 1.97366 6.92675 1.92678C6.97363 1.87989 6.99997 1.8163 6.99997 1.75V1.5C6.99997 1.4337 6.97363 1.37011 6.92675 1.32322C6.87986 1.27634 6.81628 1.25 6.74997 1.25ZM2.68497 0.795469C2.69333 0.781561 2.70515 0.77006 2.71928 0.76209C2.73341 0.75412 2.74937 0.749955 2.7656 0.75H4.23435C4.25054 0.749982 4.26647 0.75416 4.28057 0.762129C4.29468 0.770097 4.30647 0.781584 4.31482 0.795469L4.58763 1.25H2.41232L2.68497 0.795469ZM5.74997 7.25H1.24997V2H5.74997V7.25ZM2.43747 6.5H2.81247C2.8622 6.5 2.90989 6.48025 2.94505 6.44508C2.98022 6.40992 2.99997 6.36223 2.99997 6.3125V2.9375C2.99997 2.88777 2.98022 2.84008 2.94505 2.80492C2.90989 2.76975 2.8622 2.75 2.81247 2.75H2.43747C2.38774 2.75 2.34005 2.76975 2.30489 2.80492C2.26973 2.84008 2.24997 2.88777 2.24997 2.9375V6.3125C2.24997 6.36223 2.26973 6.40992 2.30489 6.44508C2.34005 6.48025 2.38774 6.5 2.43747 6.5Z" fill="#5C5C5C"/>
</svg>