<svg xmlns="http://www.w3.org/2000/svg" width="14" height="9" viewBox="0 0 14 9" fill="none">
  <path d="M4.5 1V1.63636" stroke="#393939" stroke-linecap="round" stroke-linejoin="round"/>
  <path d="M4.5 7.36364V8" stroke="#393939" stroke-linecap="round" stroke-linejoin="round"/>
  <path d="M2.02441 2.02455L2.47623 2.47637" stroke="#393939" stroke-linecap="round" stroke-linejoin="round"/>
  <path d="M6.52344 6.52363L6.97526 6.97545" stroke="#393939" stroke-linecap="round" stroke-linejoin="round"/>
  <path d="M1 4.5H1.63636" stroke="#393939" stroke-linecap="round" stroke-linejoin="round"/>
  <path d="M7.36377 4.5H8.00013" stroke="#393939" stroke-linecap="round" stroke-linejoin="round"/>
  <path d="M2.02441 6.97545L2.47623 6.52363" stroke="#393939" stroke-linecap="round" stroke-linejoin="round"/>
  <path d="M6.52344 2.47637L6.97526 2.02455" stroke="#393939" stroke-linecap="round" stroke-linejoin="round"/>
  <path d="M13.315 5.05412L12.3999 6.04019L12.3999 1.92872C12.3999 1.81502 12.3578 1.70597 12.2829 1.62557C12.208 1.54517 12.1063 1.5 12.0003 1.5C11.8944 1.5 11.7927 1.54517 11.7178 1.62557C11.6428 1.70597 11.6007 1.81502 11.6007 1.92872L11.6007 6.04019L10.6856 5.05412C10.6485 5.01394 10.6043 4.98204 10.5556 4.96028C10.5069 4.93851 10.4547 4.92731 10.4019 4.92731C10.3492 4.92731 10.2969 4.93851 10.2482 4.96028C10.1995 4.98204 10.1554 5.01394 10.1182 5.05412C10.0807 5.09398 10.051 5.1414 10.0307 5.19364C10.0104 5.24588 10 5.30192 10 5.35852C10 5.41511 10.0104 5.47115 10.0307 5.52339C10.051 5.57564 10.0807 5.62306 10.1182 5.66291L11.7166 7.37781C11.7546 7.41684 11.7994 7.44744 11.8485 7.46784C11.9458 7.51072 12.0549 7.51072 12.1522 7.46784C12.2012 7.44744 12.2461 7.41684 12.2841 7.37781L13.8825 5.66291C13.9197 5.62294 13.9493 5.57548 13.9695 5.52325C13.9896 5.47103 14 5.41505 14 5.35852C14 5.30199 13.9896 5.24601 13.9695 5.19378C13.9493 5.14155 13.9197 5.0941 13.8825 5.05412C13.8452 5.01415 13.801 4.98244 13.7523 4.96081C13.7036 4.93917 13.6515 4.92804 13.5988 4.92804C13.5461 4.92804 13.4939 4.93917 13.4452 4.96081C13.3965 4.98244 13.3523 5.01415 13.315 5.05412Z" fill="#393939"/>
  <circle cx="4.5" cy="4.5" r="0.5" fill="#393939"/>
</svg>