<svg xmlns="http://www.w3.org/2000/svg" width="14" height="9" viewBox="0 0 14 9" fill="none">
  <path d="M4.5 1V1.63636" stroke="#393939" stroke-linecap="round" stroke-linejoin="round"/>
  <path d="M4.5 7.36362V7.99998" stroke="#393939" stroke-linecap="round" stroke-linejoin="round"/>
  <path d="M2.02368 2.02454L2.4755 2.47635" stroke="#393939" stroke-linecap="round" stroke-linejoin="round"/>
  <path d="M6.52344 6.52365L6.97526 6.97547" stroke="#393939" stroke-linecap="round" stroke-linejoin="round"/>
  <path d="M1 4.5H1.63636" stroke="#393939" stroke-linecap="round" stroke-linejoin="round"/>
  <path d="M7.36426 4.5H8.00062" stroke="#393939" stroke-linecap="round" stroke-linejoin="round"/>
  <path d="M2.02368 6.97547L2.4755 6.52365" stroke="#393939" stroke-linecap="round" stroke-linejoin="round"/>
  <path d="M6.52344 2.47635L6.97526 2.02454" stroke="#393939" stroke-linecap="round" stroke-linejoin="round"/>
  <path d="M10.6852 3.94588L11.6003 2.95981V7.07128C11.6003 7.18498 11.6424 7.29403 11.7173 7.37443C11.7923 7.45483 11.8939 7.5 11.9999 7.5C12.1059 7.5 12.2075 7.45483 12.2825 7.37443C12.3574 7.29403 12.3995 7.18498 12.3995 7.07128V2.95981L13.3146 3.94588C13.3518 3.98606 13.3959 4.01795 13.4446 4.03972C13.4933 4.06149 13.5456 4.07269 13.5983 4.07269C13.6511 4.07269 13.7033 4.06149 13.752 4.03972C13.8007 4.01795 13.8449 3.98606 13.882 3.94588C13.9195 3.90602 13.9492 3.8586 13.9695 3.80636C13.9898 3.75412 14.0002 3.69808 14.0002 3.64148C14.0002 3.58489 13.9898 3.52885 13.9695 3.47661C13.9492 3.42436 13.9195 3.37694 13.882 3.33709L12.2836 1.62219C12.2456 1.58316 12.2008 1.55256 12.1518 1.53216C12.0545 1.48928 11.9453 1.48928 11.8481 1.53216C11.799 1.55256 11.7542 1.58316 11.7162 1.62219L10.1178 3.33709C10.0805 3.37706 10.051 3.42452 10.0308 3.47675C10.0106 3.52897 10.0002 3.58495 10.0002 3.64148C10.0002 3.69801 10.0106 3.75399 10.0308 3.80622C10.051 3.85845 10.0805 3.9059 10.1178 3.94588C10.155 3.98585 10.1993 4.01756 10.2479 4.03919C10.2966 4.06083 10.3488 4.07196 10.4015 4.07196C10.4542 4.07196 10.5064 4.06083 10.555 4.03919C10.6037 4.01756 10.6479 3.98585 10.6852 3.94588Z" fill="#393939"/>
  <circle cx="4.50029" cy="4.49999" r="0.5" fill="#393939"/>
</svg>