<svg xmlns="http://www.w3.org/2000/svg" width="14" height="14" viewBox="0 0 14 14" fill="none">
  <path d="M4.697 3.99451L6.3 2.3841V9.09878C6.3 9.28448 6.37375 9.46257 6.50503 9.59388C6.6363 9.72518 6.81435 9.79895 7 9.79895C7.18565 9.79895 7.3637 9.72518 7.49497 9.59388C7.62625 9.46257 7.7 9.28448 7.7 9.09878V2.3841L9.303 3.99451C9.36807 4.06013 9.44549 4.11222 9.5308 4.14777C9.6161 4.18331 9.70759 4.20162 9.8 4.20162C9.89241 4.20162 9.9839 4.18331 10.0692 4.14777C10.1545 4.11222 10.2319 4.06013 10.297 3.99451C10.3626 3.92942 10.4147 3.85198 10.4502 3.76665C10.4858 3.68133 10.5041 3.58981 10.5041 3.49738C10.5041 3.40495 10.4858 3.31343 10.4502 3.22811C10.4147 3.14279 10.3626 3.06535 10.297 3.00026L7.497 0.199559C7.43043 0.135815 7.35193 0.0858469 7.266 0.0525226C7.09558 -0.0175075 6.90442 -0.0175075 6.734 0.0525226C6.64807 0.0858469 6.56957 0.135815 6.503 0.199559L3.703 3.00026C3.63773 3.06554 3.58596 3.14304 3.55064 3.22834C3.51532 3.31364 3.49714 3.40506 3.49714 3.49738C3.49714 3.58971 3.51532 3.68113 3.55064 3.76642C3.58596 3.85172 3.63773 3.92922 3.703 3.99451C3.76827 4.05979 3.84575 4.11157 3.93103 4.14691C4.0163 4.18224 4.1077 4.20042 4.2 4.20042C4.2923 4.20042 4.3837 4.18224 4.46897 4.14691C4.55425 4.11157 4.63173 4.05979 4.697 3.99451ZM13.3 8.3986C13.1143 8.3986 12.9363 8.47237 12.805 8.60368C12.6737 8.73499 12.6 8.91308 12.6 9.09878V11.8995C12.6 12.0852 12.5263 12.2633 12.395 12.3946C12.2637 12.5259 12.0857 12.5997 11.9 12.5997H2.1C1.91435 12.5997 1.7363 12.5259 1.60503 12.3946C1.47375 12.2633 1.4 12.0852 1.4 11.8995V9.09878C1.4 8.91308 1.32625 8.73499 1.19497 8.60368C1.0637 8.47237 0.885652 8.3986 0.7 8.3986C0.514348 8.3986 0.336301 8.47237 0.205025 8.60368C0.0737498 8.73499 0 8.91308 0 9.09878V11.8995C0 12.4566 0.221249 12.9908 0.615076 13.3848C1.0089 13.7787 1.54305 14 2.1 14H11.9C12.457 14 12.9911 13.7787 13.3849 13.3848C13.7788 12.9908 14 12.4566 14 11.8995V9.09878C14 8.91308 13.9263 8.73499 13.795 8.60368C13.6637 8.47237 13.4857 8.3986 13.3 8.3986Z" fill="black"/>
</svg>