<svg width="17" height="18" viewBox="0 0 17 18" fill="none" xmlns="http://www.w3.org/2000/svg">
<path d="M5.49983 4.99313L7.50358 2.98013V11.3735C7.50358 11.6056 7.59577 11.8282 7.75986 11.9923C7.92396 12.1565 8.14652 12.2487 8.37858 12.2487C8.61064 12.2487 8.8332 12.1565 8.9973 11.9923C9.16139 11.8282 9.25358 11.6056 9.25358 11.3735V2.98013L11.2573 4.99313C11.3387 5.07516 11.4354 5.14028 11.5421 5.18471C11.6487 5.22914 11.7631 5.25202 11.8786 5.25202C11.9941 5.25202 12.1085 5.22914 12.2151 5.18471C12.3217 5.14028 12.4185 5.07516 12.4998 4.99313C12.5818 4.91177 12.6469 4.81497 12.6914 4.70832C12.7358 4.60166 12.7587 4.48727 12.7587 4.37173C12.7587 4.25619 12.7358 4.14179 12.6914 4.03514C12.6469 3.92849 12.5818 3.83168 12.4998 3.75032L8.99983 0.249449C8.91661 0.169769 8.81849 0.107309 8.71108 0.0656532C8.49805 -0.0218844 8.25911 -0.0218844 8.04608 0.0656532C7.93867 0.107309 7.84055 0.169769 7.75733 0.249449L4.25733 3.75032C4.17575 3.83193 4.11103 3.9288 4.06688 4.03543C4.02273 4.14205 4 4.25632 4 4.37173C4 4.48713 4.02273 4.60141 4.06688 4.70803C4.11103 4.81465 4.17575 4.91153 4.25733 4.99313C4.33891 5.07474 4.43577 5.13947 4.54236 5.18363C4.64896 5.2278 4.7632 5.25053 4.87858 5.25053C4.99396 5.25053 5.1082 5.2278 5.2148 5.18363C5.32139 5.13947 5.41825 5.07474 5.49983 4.99313Z" fill="#1E1E1E"/>
<path d="M16 16.9998L1 16.9998" stroke="black" stroke-width="1.75" stroke-linecap="round"/>
</svg>
