<svg width="12" height="12" viewBox="0 0 12 12" fill="none" xmlns="http://www.w3.org/2000/svg">
<path d="M1.00683 4.84978L2.03663 5.30127C2.32325 3.65764 3.61178 2.35897 5.24779 2.05206L5.76269 1.00197L5.26808 0.022893C2.51602 0.352633 0.334666 2.53906 0.012536 5.29366L1.00683 4.84978Z" fill="#1E1E1E"/>
<path d="M5.47632 11.9924L4.99693 10.9677L5.46617 9.97594C3.67797 9.74259 2.26008 8.32978 2.01658 6.54665L1.00961 6.10023L9.67987e-05 6.54665C0.258816 9.44329 2.57461 11.7464 5.47632 11.9924Z" fill="#1E1E1E"/>
<path d="M10.9727 6.80778L9.98605 6.34107C9.83132 8.14957 8.47685 9.61818 6.71909 9.94031L6.24477 10.965L6.71909 11.9695C9.5929 11.6245 11.8402 9.25293 12 6.32839L10.9727 6.80778Z" fill="#1E1E1E"/>
<path d="M9.89473 5.06774L10.9727 5.55981L11.9417 5.09564C11.5307 2.36641 9.29105 0.238319 6.51109 -0.000108244L7.01077 0.999258L6.50601 2.01638C8.16993 2.23198 9.51426 3.46216 9.89473 5.06774Z" fill="#1E1E1E"/>
</svg>
