<svg xmlns="http://www.w3.org/2000/svg" width="14" height="14" viewBox="0 0 14 14" fill="none">
  <path d="M9.30014 5.80444L7.69714 7.41485L7.69714 0.700173C7.69714 0.514475 7.62338 0.336383 7.49211 0.205075C7.36083 0.0737664 7.18279 -1.61735e-06 6.99713 -1.60112e-06C6.81148 -1.58489e-06 6.63344 0.0737665 6.50216 0.205075C6.37088 0.336383 6.29714 0.514475 6.29714 0.700173L6.29714 7.41485L4.69414 5.80445C4.62906 5.73882 4.55164 5.68673 4.46634 5.65118C4.38104 5.61564 4.28954 5.59733 4.19714 5.59733C4.10473 5.59733 4.01323 5.61564 3.92793 5.65118C3.84263 5.68673 3.76521 5.73882 3.70014 5.80445C3.63453 5.86954 3.58245 5.94698 3.54691 6.0323C3.51137 6.11762 3.49308 6.20914 3.49308 6.30157C3.49308 6.394 3.51137 6.48552 3.54691 6.57084C3.58245 6.65616 3.63453 6.7336 3.70014 6.79869L6.50014 9.59939C6.56671 9.66314 6.64521 9.7131 6.73114 9.74643C6.90156 9.81646 7.09271 9.81646 7.26314 9.74643C7.34906 9.7131 7.42756 9.66314 7.49414 9.59939L10.2941 6.79869C10.3594 6.73341 10.4112 6.65591 10.4465 6.57061C10.4818 6.48531 10.5 6.39389 10.5 6.30157C10.5 6.20924 10.4818 6.11782 10.4465 6.03253C10.4112 5.94723 10.3594 5.86973 10.2941 5.80444C10.2289 5.73916 10.1514 5.68738 10.0661 5.65205C9.98083 5.61671 9.88944 5.59853 9.79714 5.59853C9.70483 5.59853 9.61344 5.61671 9.52816 5.65205C9.44289 5.68738 9.3654 5.73916 9.30014 5.80444Z" fill="black"/>
  <path d="M13.3 8.39862C13.1143 8.39862 12.9363 8.47239 12.805 8.6037C12.6737 8.73501 12.6 8.9131 12.6 9.09879V11.8995C12.6 12.0852 12.5263 12.2633 12.395 12.3946C12.2637 12.5259 12.0857 12.5997 11.9 12.5997H2.1C1.91435 12.5997 1.7363 12.5259 1.60503 12.3946C1.47375 12.2633 1.4 12.0852 1.4 11.8995V9.09879C1.4 8.9131 1.32625 8.73501 1.19497 8.6037C1.0637 8.47239 0.885652 8.39862 0.7 8.39862C0.514348 8.39862 0.336301 8.47239 0.205025 8.6037C0.0737498 8.73501 0 8.9131 0 9.09879V11.8995C0 12.4566 0.221249 12.9909 0.615076 13.3848C1.0089 13.7787 1.54305 14 2.1 14H11.9C12.457 14 12.9911 13.7787 13.3849 13.3848C13.7788 12.9909 14 12.4566 14 11.8995V9.09879C14 8.9131 13.9263 8.73501 13.795 8.6037C13.6637 8.47239 13.4857 8.39862 13.3 8.39862Z" fill="black"/>
</svg>