<svg width="17" height="18" viewBox="0 0 17 18" fill="none" xmlns="http://www.w3.org/2000/svg">
<path d="M11.259 7.25565L9.25521 9.26865L9.25521 0.875307C9.25521 0.643185 9.16302 0.42057 8.99893 0.256435C8.83483 0.0922998 8.61227 9.00079e-05 8.38021 9.00282e-05C8.14814 9.00485e-05 7.92558 0.0922999 7.76149 0.256435C7.59739 0.42057 7.50521 0.643185 7.50521 0.875308L7.50521 9.26865L5.50146 7.25565C5.42012 7.17362 5.32334 7.1085 5.21671 7.06407C5.11009 7.01964 4.99572 6.99676 4.88021 6.99676C4.7647 6.99676 4.65033 7.01964 4.5437 7.06407C4.43708 7.1085 4.3403 7.17362 4.25896 7.25565C4.17695 7.33701 4.11185 7.43381 4.06743 7.54046C4.02301 7.64712 4.00014 7.76151 4.00014 7.87705C4.00014 7.99259 4.02301 8.10699 4.06743 8.21364C4.11185 8.32029 4.17695 8.4171 4.25896 8.49846L7.75896 11.9993C7.84217 12.079 7.9403 12.1415 8.04771 12.1831C8.26074 12.2707 8.49968 12.2707 8.71271 12.1831C8.82012 12.1415 8.91824 12.079 9.00146 11.9993L12.5015 8.49846C12.583 8.41685 12.6478 8.31997 12.6919 8.21335C12.7361 8.10673 12.7588 7.99246 12.7588 7.87705C12.7588 7.76165 12.7361 7.64737 12.6919 7.54075C12.6478 7.43413 12.583 7.33725 12.5015 7.25565C12.4199 7.17404 12.323 7.10931 12.2164 7.06515C12.1098 7.02098 11.9956 6.99825 11.8802 6.99825C11.7648 6.99825 11.6506 7.02098 11.544 7.06515C11.4374 7.10931 11.3405 7.17404 11.259 7.25565Z" fill="#1E1E1E"/>
<path d="M16 17L1 17" stroke="black" stroke-width="1.75" stroke-linecap="round"/>
</svg>
