<svg xmlns="http://www.w3.org/2000/svg" width="16" height="16" viewBox="0 0 16 16" fill="none">
  <g clip-path="url(#clip0_1_115)">
    <path d="M7.99998 1.33334C11.6813 1.33334 14.6666 3.98534 14.6666 7.25934C14.6661 8.24148 14.2757 9.18323 13.5811 9.87765C12.8866 10.5721 11.9448 10.9623 10.9626 10.9627H9.65198C9.03731 10.9627 8.54065 11.4593 8.54065 12.074C8.54065 12.3553 8.65198 12.6147 8.82198 12.8073C8.99998 13.0073 9.11131 13.2667 9.11131 13.5553C9.11131 14.1707 8.59998 14.6667 7.99998 14.6667C4.31865 14.6667 1.33331 11.6813 1.33331 8.00001C1.33331 4.31868 4.31865 1.33334 7.99998 1.33334ZM7.20731 12.074C7.20705 11.7529 7.2701 11.4349 7.39287 11.1382C7.51563 10.8414 7.69569 10.5718 7.92275 10.3448C8.14981 10.1177 8.41942 9.93766 8.71613 9.8149C9.01285 9.69213 9.33087 9.62908 9.65198 9.62934H10.9626C11.591 9.62899 12.1936 9.37929 12.6381 8.93507C13.0826 8.49085 13.3326 7.88841 13.3333 7.26001C13.3333 4.75934 10.9786 2.66668 7.99998 2.66668C6.6237 2.66542 5.30021 3.19625 4.30623 4.14818C3.31226 5.10011 2.72475 6.39943 2.66655 7.77448C2.60835 9.14953 3.08397 10.4939 3.99396 11.5264C4.90394 12.5589 6.17785 13.1996 7.54931 13.3147C7.32609 12.9395 7.20796 12.5105 7.20731 12.074ZM4.99998 8.00001C4.73476 8.00001 4.48041 7.89465 4.29287 7.70712C4.10534 7.51958 3.99998 7.26523 3.99998 7.00001C3.99998 6.73479 4.10534 6.48044 4.29287 6.2929C4.48041 6.10537 4.73476 6.00001 4.99998 6.00001C5.2652 6.00001 5.51955 6.10537 5.70709 6.2929C5.89462 6.48044 5.99998 6.73479 5.99998 7.00001C5.99998 7.26523 5.89462 7.51958 5.70709 7.70712C5.51955 7.89465 5.2652 8.00001 4.99998 8.00001ZM11 8.00001C10.7348 8.00001 10.4804 7.89465 10.2929 7.70712C10.1053 7.51958 9.99998 7.26523 9.99998 7.00001C9.99998 6.73479 10.1053 6.48044 10.2929 6.2929C10.4804 6.10537 10.7348 6.00001 11 6.00001C11.2652 6.00001 11.5195 6.10537 11.7071 6.2929C11.8946 6.48044 12 6.73479 12 7.00001C12 7.26523 11.8946 7.51958 11.7071 7.70712C11.5195 7.89465 11.2652 8.00001 11 8.00001ZM7.99998 6.00001C7.73476 6.00001 7.48041 5.89465 7.29287 5.70712C7.10534 5.51958 6.99998 5.26523 6.99998 5.00001C6.99998 4.73479 7.10534 4.48044 7.29287 4.2929C7.48041 4.10537 7.73476 4.00001 7.99998 4.00001C8.2652 4.00001 8.51955 4.10537 8.70709 4.2929C8.89462 4.48044 8.99998 4.73479 8.99998 5.00001C8.99998 5.26523 8.89462 5.51958 8.70709 5.70712C8.51955 5.89465 8.2652 6.00001 7.99998 6.00001Z" fill="black"/>
  </g>
  <defs>
    <clipPath id="clip0_1_115">
      <rect width="16" height="16" fill="white"/>
    </clipPath>
  </defs>
</svg>