<svg width="20" height="20" viewBox="0 0 20 20" fill="none" xmlns="http://www.w3.org/2000/svg">
<circle cx="6.25" cy="6.75" r="1.25" fill="#1E1E1E"/>
<circle cx="4.75" cy="10.75" r="1.25" fill="#1E1E1E"/>
<circle cx="10.75" cy="5.25" r="1.25" fill="#1E1E1E"/>
<path d="M19.9947 8.70508C19.9275 6.59121 18.9621 4.45437 17.346 2.84254C16.0459 1.54578 13.7313 0 10.088 0C7.20477 0 4.50883 1.1827 2.60734 3.25488C0.7025 5.33062 -0.209102 8.07074 0.0404297 10.9706C0.471719 15.9762 4.75754 20 9.82574 20C10.5738 19.9984 11.1901 19.6466 11.4743 19.0587C11.7466 18.4957 11.6545 17.8149 11.2341 17.2819C10.7386 16.6537 10.6686 16.0288 11.02 15.3713C11.3681 14.7196 11.9136 14.4152 12.7368 14.4134C13.4552 14.4119 14.2025 14.4247 14.9416 14.3779C18.2304 14.1686 20.0932 11.8071 19.9947 8.70508ZM14.8673 13.2086C14.1706 13.2528 13.4384 13.2404 12.7343 13.2418C11.4864 13.2446 10.5363 13.7901 9.98668 14.8192C9.41684 15.885 9.53313 17.0173 10.3142 18.0075C10.4566 18.1882 10.496 18.3904 10.4195 18.5486C10.3146 18.7655 10.0476 18.8284 9.80613 18.8284C5.36906 18.8284 1.59219 15.3327 1.20766 10.87C0.986602 8.30121 1.79023 5.87805 3.47047 4.04699C5.14742 2.21965 7.55938 1.1716 10.088 1.1716C13.3309 1.1716 15.3749 2.53137 16.5186 3.67203C17.9257 5.07543 18.7658 6.92344 18.8236 8.74227C18.8882 10.7757 17.8828 13.0168 14.8673 13.2086Z" fill="#1E1E1E"/>
<circle cx="14.75" cy="7.25" r="1.25" fill="#1E1E1E"/>
</svg>
