<svg xmlns="http://www.w3.org/2000/svg" width="14" height="16" viewBox="0 0 14 16" fill="none">
  <path d="M8.0992 15.1542H5.90063" stroke="white" stroke-width="1.25" stroke-linecap="round" stroke-linejoin="round"/>
  <path d="M6.65639 1.12459C5.351 2.1689 0.988223 6.34617 4.80136 12.9556H9.19848C12.936 6.34617 8.6351 2.17577 7.34345 1.12459C7.24707 1.04409 7.12549 1 6.99992 1C6.87435 1 6.75277 1.04409 6.65639 1.12459Z" stroke="white" stroke-width="1.25" stroke-linecap="round" stroke-linejoin="round"/>
  <path d="M3.28304 7.41797L1.1257 10.0013C1.07136 10.0647 1.03301 10.1402 1.01388 10.2215C0.994753 10.3028 0.995403 10.3875 1.01578 10.4685L1.86085 14.2953C1.88124 14.3863 1.92443 14.4706 1.98637 14.5403C2.0483 14.6099 2.12694 14.6627 2.21488 14.6936C2.30283 14.7246 2.39719 14.7326 2.4891 14.717C2.58101 14.7014 2.66744 14.6627 2.74027 14.6045L4.80143 12.9556" stroke="white" stroke-width="1.25" stroke-linecap="round" stroke-linejoin="round"/>
  <path d="M10.6759 7.36301L12.8745 10.0013C12.9288 10.0647 12.9671 10.1402 12.9863 10.2215C13.0054 10.3028 13.0048 10.3875 12.9844 10.4685L12.1393 14.2954C12.1189 14.3863 12.0757 14.4706 12.0138 14.5403C11.9519 14.61 11.8732 14.6627 11.7853 14.6936C11.6973 14.7246 11.603 14.7326 11.5111 14.717C11.4191 14.7014 11.3327 14.6627 11.2599 14.6045L9.19873 12.9556" stroke="white" stroke-width="1.25" stroke-linecap="round" stroke-linejoin="round"/>
  <path d="M7.00004 7.04695C7.37949 7.04695 7.68709 6.73935 7.68709 6.3599C7.68709 5.98045 7.37949 5.67285 7.00004 5.67285C6.62059 5.67285 6.31299 5.98045 6.31299 6.3599C6.31299 6.73935 6.62059 7.04695 7.00004 7.04695Z" fill="white"/>
</svg>