<svg width="19" height="22" viewBox="0 0 19 22" fill="none" xmlns="http://www.w3.org/2000/svg">
<path d="M11.0309 21H7.92432" stroke="#F7F7F7" stroke-width="1.25" stroke-linecap="round" stroke-linejoin="round"/>
<path d="M8.99261 1.17604C7.14807 2.65167 0.983428 8.5542 6.37143 17.8934H12.5846C17.8658 8.5542 11.7885 2.66138 9.96343 1.17604C9.82724 1.0623 9.65545 1 9.47802 1C9.30059 1 9.1288 1.0623 8.99261 1.17604Z" stroke="#F7F7F7" stroke-width="1.25" stroke-linecap="round" stroke-linejoin="round"/>
<path d="M4.22597 10.0686L1.17762 13.7189C1.10083 13.8084 1.04664 13.9152 1.01961 14.03C0.992586 14.1449 0.993504 14.2646 1.02229 14.379L2.21639 19.7864C2.2452 19.915 2.30624 20.034 2.39375 20.1325C2.48126 20.2309 2.59237 20.3055 2.71664 20.3492C2.84091 20.3929 2.97425 20.4043 3.10412 20.3822C3.23398 20.3602 3.35612 20.3055 3.45903 20.2233L6.37146 17.8933" stroke="#F7F7F7" stroke-width="1.25" stroke-linecap="round" stroke-linejoin="round"/>
<path d="M14.6722 9.99097L17.7788 13.7189C17.8556 13.8085 17.9098 13.9152 17.9368 14.0301C17.9638 14.1449 17.9629 14.2646 17.9341 14.379L16.74 19.7864C16.7112 19.915 16.6502 20.0341 16.5627 20.1325C16.4752 20.231 16.364 20.3056 16.2398 20.3492C16.1155 20.3929 15.9822 20.4043 15.8523 20.3823C15.7224 20.3602 15.6003 20.3055 15.4974 20.2233L12.585 17.8934" stroke="#F7F7F7" stroke-width="1.25" stroke-linecap="round" stroke-linejoin="round"/>
<path d="M9.47862 9.5444C10.0148 9.5444 10.4494 9.10976 10.4494 8.57359C10.4494 8.03743 10.0148 7.60278 9.47862 7.60278C8.94246 7.60278 8.50781 8.03743 8.50781 8.57359C8.50781 9.10976 8.94246 9.5444 9.47862 9.5444Z" fill="#F7F7F7"/>
</svg>
