<svg width="12" height="13" viewBox="0 0 12 13" fill="none" xmlns="http://www.w3.org/2000/svg">
<path d="M7.9856 5.35837L6.46501 6.84501L6.46501 0.64635C6.46501 0.474922 6.39505 0.310517 6.27053 0.1893C6.146 0.0680821 5.97711 -1.6891e-05 5.801 -1.68757e-05C5.62489 -1.68603e-05 5.456 0.0680822 5.33147 0.1893C5.20695 0.310517 5.13699 0.474923 5.13699 0.64635L5.13699 6.84501L3.6164 5.35837C3.55467 5.29778 3.48123 5.2497 3.40032 5.21688C3.3194 5.18407 3.23261 5.16717 3.14495 5.16717C3.05729 5.16717 2.97051 5.18407 2.88959 5.21688C2.80867 5.2497 2.73523 5.29778 2.6735 5.35837C2.61127 5.41845 2.56187 5.48994 2.52816 5.56871C2.49445 5.64747 2.47709 5.73196 2.47709 5.81729C2.47709 5.90261 2.49445 5.9871 2.52816 6.06586C2.56187 6.14463 2.61127 6.21612 2.67351 6.27621L5.32955 8.86168C5.3927 8.92052 5.46717 8.96665 5.54868 8.99741C5.71034 9.06206 5.89166 9.06206 6.05333 8.99741C6.13483 8.96665 6.2093 8.92052 6.27245 8.86168L8.9285 6.27621C8.99041 6.21594 9.03952 6.14439 9.07303 6.06565C9.10653 5.98691 9.12378 5.90252 9.12378 5.81729C9.12378 5.73206 9.10653 5.64766 9.07303 5.56892C9.03952 5.49018 8.99041 5.41863 8.9285 5.35837C8.86659 5.2981 8.79309 5.25029 8.7122 5.21768C8.6313 5.18506 8.54461 5.16827 8.45705 5.16827C8.36949 5.16827 8.28279 5.18506 8.2019 5.21768C8.12101 5.25029 8.04751 5.2981 7.9856 5.35837Z" fill="#2F6EE9"/>
<path d="M10.6008 12L1.00006 12" stroke="#2F6EE9" stroke-width="1.25" stroke-linecap="round"/>
</svg>
